<?xml version="1.0" standalone="no"?>
<!DOCTYPE svg PUBLIC "-//W3C//DTD SVG 20010904//EN"
 "http://www.w3.org/TR/2001/REC-SVG-20010904/DTD/svg10.dtd">
<svg version="1.0" xmlns="http://www.w3.org/2000/svg"
 width="1280.000000pt" height="1122.000000pt" viewBox="0 0 1280.000000 1122.000000"
 preserveAspectRatio="xMidYMid meet">
<metadata>
Created by potrace 1.15, written by Peter Selinger 2001-2017
</metadata>
<g transform="translate(0.000000,1122.000000) scale(0.100000,-0.100000)"
fill="#000000" stroke="none">
<path d="M5697 11170 l-40 -40 7 -98 c6 -96 6 -99 -16 -110 -13 -6 -34 -21
-48 -32 -20 -16 -43 -21 -111 -24 -47 -2 -95 -9 -107 -15 -11 -6 -34 -11 -51
-11 -71 0 -80 -31 -26 -99 42 -52 46 -94 13 -112 -13 -7 -23 -12 -23 -11 0 1
-33 13 -72 27 -78 27 -135 31 -195 14 -33 -8 -38 -14 -38 -39 0 -44 -23 -60
-86 -60 -30 0 -65 6 -77 14 -16 10 -43 13 -99 9 -68 -5 -80 -9 -105 -35 -21
-22 -28 -39 -28 -70 0 -30 -5 -43 -20 -52 -59 -33 -83 -57 -88 -88 -3 -18 -11
-55 -18 -83 l-14 -50 -121 3 c-117 2 -121 2 -144 -23 -17 -18 -34 -25 -62 -25
-47 0 -83 -17 -122 -59 -35 -37 -63 -39 -101 -9 -15 12 -35 22 -44 23 -46 5
-98 20 -118 33 -16 10 -36 12 -65 8 -24 -3 -71 -8 -106 -9 -70 -4 -82 5 -82
63 0 23 -6 33 -25 42 -24 11 -28 8 -58 -28 -18 -21 -53 -60 -79 -85 -28 -27
-48 -56 -48 -68 0 -14 -11 -27 -33 -37 -22 -11 -38 -28 -46 -50 -12 -33 -18
-37 -86 -49 -26 -4 -255 20 -277 29 -25 11 -95 -57 -108 -104 -6 -21 -7 -69
-4 -108 l7 -69 -66 -7 c-37 -4 -76 -5 -87 -1 -28 9 -120 -14 -127 -32 -8 -19
21 -48 84 -84 56 -32 83 -72 118 -171 21 -60 19 -81 -9 -107 -22 -21 -31 -22
-101 -17 -42 3 -85 11 -97 17 -57 30 -104 27 -92 -6 3 -7 -2 -35 -11 -61 -19
-55 -13 -133 13 -173 16 -23 15 -25 -23 -58 -22 -19 -69 -48 -105 -64 -36 -17
-72 -34 -80 -40 -8 -5 -26 -14 -40 -20 -14 -6 -32 -17 -41 -25 -9 -8 -45 -19
-79 -25 -35 -5 -68 -13 -74 -17 -6 -4 -36 -12 -66 -18 -93 -20 -102 -23 -114
-39 -10 -13 -157 -75 -179 -75 -5 0 -23 -11 -41 -25 -18 -14 -39 -25 -47 -25
-8 0 -20 -5 -26 -11 -6 -6 -17 -11 -24 -13 -8 -1 -34 -13 -59 -28 -41 -23 -58
-26 -185 -32 -201 -8 -203 -9 -290 -84 -66 -56 -75 -69 -75 -98 0 -30 5 -36
48 -58 26 -13 58 -27 72 -31 14 -4 36 -17 50 -30 14 -12 38 -29 54 -36 16 -8
31 -19 33 -26 5 -14 -79 -73 -104 -73 -48 0 -103 -102 -103 -190 0 -60 0 -60
-29 -60 -44 0 -81 -17 -81 -37 0 -10 10 -37 22 -60 20 -38 21 -44 8 -68 -8
-15 -24 -31 -35 -35 -52 -20 -90 -93 -90 -173 0 -51 3 -62 24 -76 53 -36 132
-116 129 -130 -2 -8 -19 -19 -38 -24 -19 -5 -42 -15 -50 -22 -9 -8 -33 -20
-55 -27 -31 -10 -55 -32 -108 -98 l-68 -84 3 -104 3 -104 36 -21 36 -21 63 22
c73 25 80 22 139 -44 36 -41 41 -53 41 -94 0 -69 24 -108 143 -230 76 -77 107
-117 107 -134 0 -43 27 -91 62 -110 31 -17 68 -64 68 -86 0 -5 -16 -26 -35
-47 -28 -30 -35 -46 -35 -78 0 -37 -4 -43 -53 -75 -28 -19 -59 -38 -67 -41 -8
-4 -28 -21 -44 -38 -24 -25 -31 -45 -42 -115 -7 -51 -23 -106 -39 -138 -24
-47 -26 -60 -21 -119 8 -91 36 -149 97 -201 28 -24 77 -67 108 -95 32 -29 67
-53 78 -53 32 0 44 -24 46 -88 2 -54 5 -61 37 -88 48 -39 51 -44 44 -81 -7
-35 14 -53 59 -53 31 0 107 -55 107 -78 0 -9 -46 -57 -102 -107 -56 -49 -128
-115 -161 -145 -245 -225 -275 -257 -286 -312 -15 -66 -14 -72 9 -93 15 -14
20 -31 20 -69 0 -100 9 -125 51 -147 l39 -19 0 -63 c0 -90 -21 -105 -94 -66
l-38 20 22 -36 c29 -46 21 -81 -23 -100 -42 -17 -72 -50 -92 -103 -10 -24 -37
-60 -63 -82 -25 -23 -53 -58 -62 -78 -10 -21 -30 -46 -46 -56 -16 -11 -49 -39
-72 -62 -24 -24 -49 -44 -55 -44 -12 0 -97 -93 -97 -106 0 -19 -75 -125 -100
-141 -33 -21 -80 -105 -80 -144 0 -31 28 -59 58 -59 27 0 66 17 117 51 92 61
138 77 236 84 l94 7 39 -41 c26 -26 52 -43 75 -47 105 -20 157 -66 146 -128
-6 -31 -3 -39 23 -66 17 -16 37 -30 46 -30 21 0 85 -39 95 -59 6 -10 4 -25 -4
-41 -17 -32 -10 -47 34 -66 20 -9 44 -20 53 -25 10 -5 27 -9 38 -9 11 0 39
-10 64 -22 36 -17 46 -28 50 -54 9 -45 25 -56 67 -43 19 5 74 10 123 11 77 0
92 -3 119 -23 34 -24 98 -34 132 -20 60 25 79 30 142 36 65 7 71 6 100 -19 17
-14 34 -26 38 -26 19 0 131 56 143 71 17 25 115 69 151 69 16 0 32 4 35 9 9
14 112 82 185 122 53 29 73 35 104 31 34 -4 42 0 92 47 29 28 58 51 63 51 6 0
29 16 52 35 30 25 48 34 62 29 11 -3 47 -7 80 -8 47 -2 64 -7 74 -22 8 -10 30
-36 49 -56 30 -32 35 -43 35 -87 0 -32 6 -55 16 -65 20 -20 23 -20 84 4 28 11
60 20 72 20 11 0 36 13 55 30 20 18 45 30 62 30 16 0 34 7 41 15 26 31 153 14
196 -26 23 -21 25 -21 141 -9 275 29 293 30 293 5 0 -19 31 -42 70 -52 39 -11
39 -7 19 -133 -8 -55 -8 -87 0 -123 10 -43 8 -53 -10 -90 -19 -37 -21 -57 -19
-183 1 -79 -3 -160 -10 -183 -9 -33 -8 -47 3 -69 19 -36 37 -114 37 -160 0
-28 7 -45 26 -63 23 -22 25 -29 20 -79 -4 -30 -8 -97 -11 -148 -3 -50 -12
-111 -20 -135 -19 -53 -19 -91 -1 -106 29 -24 82 18 194 153 31 38 78 94 105
124 26 30 47 60 47 66 0 6 14 25 32 41 17 17 73 72 123 124 l92 95 63 -28 c35
-15 67 -23 71 -19 4 4 17 33 30 63 31 76 36 80 85 80 23 0 46 5 49 10 13 21
41 7 70 -33 17 -23 40 -43 52 -45 11 -2 29 -12 39 -23 9 -10 23 -19 29 -19 7
0 20 -11 29 -25 9 -14 33 -36 54 -49 32 -21 44 -23 85 -17 38 6 58 17 91 50
38 37 46 41 77 35 35 -7 69 -30 69 -47 0 -5 -25 -36 -56 -70 -88 -95 -154
-206 -154 -260 0 -31 32 -77 54 -77 4 0 20 -10 36 -22 26 -19 37 -20 118 -15
72 4 100 11 149 36 33 17 64 31 69 31 10 0 184 74 227 97 27 14 30 14 56 -11
18 -18 38 -26 62 -26 27 0 37 -6 51 -30 9 -17 25 -30 35 -30 10 0 24 -9 31
-21 7 -11 29 -27 48 -35 19 -8 54 -28 76 -44 23 -17 50 -30 60 -30 10 0 47
-13 82 -30 130 -60 187 -75 311 -81 l70 -4 8 85 7 85 63 57 c34 32 74 63 89
69 25 10 30 8 55 -22 15 -18 34 -42 42 -53 23 -32 33 -37 70 -32 26 4 45 -2
85 -28 28 -18 58 -41 66 -50 8 -10 40 -38 72 -63 57 -43 61 -45 108 -38 46 6
53 5 85 -24 20 -17 43 -31 52 -31 8 0 42 -12 75 -27 49 -22 65 -25 87 -16 15
5 36 6 46 2 78 -28 107 -33 138 -19 44 18 82 14 163 -15 l69 -25 20 25 c12 14
24 25 29 25 4 0 27 -14 52 -31 41 -28 46 -29 66 -15 25 18 64 21 73 6 13 -21
84 -10 134 20 l50 31 63 -29 c153 -72 166 -74 210 -37 56 48 129 27 215 -61
35 -35 63 -70 63 -78 0 -7 16 -34 35 -59 19 -25 35 -48 35 -51 0 -16 99 -130
123 -143 41 -21 51 -7 55 77 5 80 20 90 66 43 41 -44 88 -91 182 -183 66 -65
153 -175 179 -227 4 -8 85 22 85 32 0 8 -16 35 -36 61 -35 45 -46 62 -89 132
-11 18 -38 60 -60 94 -69 104 -75 113 -82 128 -4 8 -22 36 -41 62 -42 60 -91
173 -92 213 0 17 -13 55 -30 85 -16 30 -29 62 -30 69 0 8 -11 26 -24 40 -13
15 -41 60 -62 101 -21 41 -43 82 -50 90 -6 8 -15 26 -18 40 -4 14 -21 56 -39
94 l-32 68 26 22 c38 31 59 95 59 181 0 73 0 74 -26 72 -21 -2 -28 4 -38 33
-21 55 -35 82 -61 118 -29 41 -24 63 14 56 15 -3 44 1 65 10 l38 16 -7 75 c-4
47 -3 75 3 75 6 0 20 19 32 42 20 39 21 47 10 103 -6 33 -20 80 -31 104 -22
50 -25 83 -6 76 6 -3 44 1 82 8 61 11 70 15 73 35 5 32 -30 75 -150 183 -57
51 -106 101 -110 111 -4 10 -11 18 -16 18 -8 0 -31 99 -30 135 0 22 -34 154
-65 255 -23 74 -25 144 -6 279 9 74 10 98 0 113 -7 11 -10 23 -7 26 13 12 146
56 221 72 54 12 86 -11 100 -71 13 -55 21 -69 45 -69 13 0 24 -16 39 -62 12
-34 21 -71 21 -81 0 -11 11 -49 24 -86 13 -36 26 -99 30 -139 9 -103 68 -212
115 -212 23 0 94 68 117 112 20 38 58 37 100 -3 l32 -31 14 29 c15 32 50 42
75 21 15 -12 15 -11 1 12 -9 14 -19 43 -23 65 -4 22 -18 58 -31 81 -36 61 -32
88 18 124 22 16 49 30 58 30 10 0 23 7 31 16 7 8 26 22 43 31 17 9 42 29 57
46 17 20 35 30 55 31 26 1 29 5 31 35 1 23 -7 45 -23 66 -13 18 -24 37 -24 43
0 18 53 54 73 48 10 -2 31 3 46 12 26 15 30 15 54 -1 15 -9 34 -17 44 -17 10
0 29 -9 43 -20 14 -11 36 -20 50 -20 27 0 80 -28 120 -64 52 -46 298 -106 302
-74 1 7 2 36 2 65 1 69 22 92 68 76 18 -7 59 -15 91 -19 40 -4 68 -14 87 -30
20 -18 40 -24 73 -24 27 0 49 -6 57 -15 16 -19 90 -20 116 0 10 8 40 15 66 15
63 0 78 21 71 101 -6 64 10 141 35 161 8 7 25 30 38 50 l24 38 92 -2 c51 -2
99 1 107 6 21 14 8 139 -18 173 -23 29 -27 73 -9 91 16 16 57 15 88 -3 34 -19
75 -19 91 2 9 10 14 42 14 91 l0 75 63 26 c35 14 75 37 90 51 19 17 42 26 82
30 l55 5 3 44 c5 68 -2 81 -88 172 -68 71 -80 88 -75 109 12 52 17 120 11 144
-5 20 -16 28 -51 37 -31 8 -52 21 -66 40 -29 41 -99 179 -99 195 0 8 -10 14
-24 14 -29 0 -56 33 -56 68 0 13 -18 43 -42 70 -63 69 -72 88 -58 122 11 27 9
31 -29 66 -39 35 -41 38 -25 55 10 11 25 19 34 19 25 0 40 21 40 57 l0 33 59
0 c69 0 120 28 132 74 5 17 15 34 24 38 32 18 6 75 -70 151 -31 31 -36 42 -30
65 14 55 17 182 5 211 -27 67 -79 90 -223 98 -61 4 -83 1 -95 -10 -45 -40
-199 -26 -230 20 -14 23 -14 27 0 51 9 15 28 33 42 40 18 9 26 21 26 38 0 36
49 94 80 95 21 0 18 4 -20 22 -25 12 -54 29 -65 37 -22 16 -55 105 -55 146 0
22 -50 127 -71 149 -6 6 -21 3 -40 -9 -22 -13 -34 -15 -41 -8 -7 7 -29 9 -53
5 -39 -5 -46 -2 -84 32 -36 32 -41 43 -41 79 0 23 5 47 12 54 9 9 8 32 -2 97
-10 67 -11 94 -2 119 7 18 12 86 12 154 l0 121 53 35 c28 19 66 40 82 47 17 7
45 24 63 37 28 22 32 30 32 72 0 51 -15 72 -60 84 -14 4 -34 11 -45 16 -11 4
-46 16 -78 25 -59 17 -87 37 -87 59 0 16 -32 86 -61 135 -19 31 -19 36 -5 71
15 39 12 103 -6 127 -5 6 -6 27 -3 46 6 30 3 37 -22 56 -17 14 -30 35 -33 54
-5 29 -8 32 -37 29 -39 -4 -78 32 -93 86 -11 42 -6 52 24 52 20 0 115 28 125
36 3 2 -4 14 -15 27 -17 18 -19 33 -16 89 3 58 6 67 26 72 35 9 79 61 72 84
-7 22 -53 42 -95 42 -82 1 -111 47 -111 180 0 49 4 91 9 95 5 3 12 19 16 35 4
16 17 49 30 72 65 115 65 116 65 187 0 148 -71 231 -197 231 -38 0 -77 -7
-105 -19 -24 -11 -68 -21 -97 -23 -48 -3 -55 0 -74 25 -12 15 -24 49 -27 75
-4 38 -9 48 -26 50 -11 2 -26 -4 -33 -12 -9 -11 -29 -13 -91 -9 -60 5 -88 2
-121 -11 -41 -17 -44 -17 -91 6 -41 19 -48 27 -43 45 4 19 0 22 -27 25 -26 2
-37 10 -50 37 -10 19 -28 46 -42 59 -23 24 -30 25 -160 26 l-136 2 -53 52
c-35 35 -61 52 -78 52 -14 0 -31 6 -38 13 -7 6 -38 12 -69 13 -70 1 -141 14
-148 26 -3 5 4 34 16 64 19 45 22 68 18 125 -6 75 -25 109 -62 109 -31 0 -113
-27 -138 -45 -27 -18 -67 -20 -72 -2 -3 6 -7 25 -11 41 -7 32 -108 136 -132
136 -8 0 -28 -9 -44 -21 -27 -19 -38 -44 -54 -122 -6 -31 -8 -32 -144 -11 -44
6 -96 -4 -161 -34 -21 -9 -67 -16 -115 -17 -92 -2 -115 2 -115 21 0 23 -50
117 -78 147 -14 15 -33 27 -41 27 -17 0 -78 -39 -130 -83 -31 -26 -40 -29 -92
-25 -41 3 -66 10 -81 25 -13 11 -33 24 -45 28 -25 7 -28 17 -13 44 11 22 17
53 26 141 6 67 6 68 -21 81 -29 15 -43 37 -72 114 -16 44 -25 53 -73 77 -30
15 -68 28 -83 28 -15 0 -61 -18 -102 -40 -69 -37 -145 -54 -145 -32 0 5 12 32
26 61 14 29 23 55 20 58 -10 10 -124 -21 -173 -48 -29 -16 -59 -29 -67 -29 -8
0 -30 -9 -49 -20 -56 -33 -87 -13 -87 58 0 41 -2 43 -47 63 l-46 20 -126 -41
c-69 -23 -141 -46 -160 -52 -32 -10 -35 -9 -95 50 -69 69 -159 132 -186 132
-36 0 -36 -4 11 -184 9 -33 8 -41 -9 -58 -15 -15 -24 -18 -38 -10 -17 9 -88 0
-185 -24 -24 -5 -32 1 -68 48 -40 53 -41 57 -41 134 0 100 -7 124 -33 124 -11
0 -28 7 -38 16 -25 22 -43 13 -71 -38 -21 -38 -27 -43 -53 -40 -38 5 -62 26
-70 63 -8 36 -38 56 -86 57 -20 1 -48 6 -63 12 -37 14 -33 15 -79 -30z"/>
</g>
</svg>
