<?xml version="1.0" standalone="no"?>
<!DOCTYPE svg PUBLIC "-//W3C//DTD SVG 20010904//EN"
 "http://www.w3.org/TR/2001/REC-SVG-20010904/DTD/svg10.dtd">
<svg version="1.0" xmlns="http://www.w3.org/2000/svg"
 width="1280.000000pt" height="282.000000pt" viewBox="0 0 1280.000000 282.000000"
 preserveAspectRatio="xMidYMid meet">
<metadata>
Created by potrace 1.15, written by Peter Selinger 2001-2017
</metadata>
<g transform="translate(0.000000,282.000000) scale(0.100000,-0.100000)"
fill="#000000" stroke="none">
<path d="M1922 2680 l-93 -49 -32 19 c-34 20 -168 60 -201 60 -18 0 -18 -1 3
-24 21 -23 15 -46 -9 -31 -5 3 -10 2 -10 -4 0 -5 -10 -13 -22 -16 -35 -11 -68
-46 -68 -72 l0 -23 -37 19 c-30 14 -42 16 -56 7 -14 -9 -20 -8 -28 6 -7 13
-17 16 -39 11 -26 -5 -30 -2 -30 16 0 37 -17 23 -24 -20 -5 -34 -10 -40 -29
-38 -12 1 -31 -2 -41 -6 -13 -6 -29 -3 -48 8 -44 25 -78 22 -78 -5 0 -30 -8
-40 -54 -77 l-39 -31 -33 21 -33 20 -20 -20 c-12 -12 -29 -21 -39 -21 -23 0
-48 -30 -57 -68 -4 -20 -14 -32 -29 -36 -13 -3 -54 -24 -92 -46 -38 -22 -76
-40 -85 -40 -23 0 -50 -71 -53 -141 -3 -70 -21 -92 -78 -92 -38 0 -40 -1 -23
-13 10 -8 23 -14 29 -14 6 0 6 -4 -1 -11 -7 -7 -21 -5 -46 7 -55 26 -70 15
-62 -49 3 -28 11 -66 16 -83 13 -42 -2 -79 -54 -132 -39 -40 -41 -44 -30 -73
10 -26 9 -35 -4 -56 -16 -24 -16 -28 0 -56 13 -21 15 -33 7 -41 -5 -5 -10 -23
-10 -38 0 -21 5 -28 19 -28 11 0 23 5 26 10 6 10 55 -40 55 -56 0 -4 -10 -18
-21 -30 -15 -16 -20 -30 -16 -46 7 -28 55 -58 91 -58 26 0 35 -13 16 -25 -16
-10 -12 -45 5 -45 8 0 15 -5 15 -11 0 -7 -11 -9 -30 -6 -21 5 -30 3 -30 -7 0
-19 56 -93 85 -112 14 -9 25 -25 25 -36 0 -37 20 -58 60 -64 27 -4 40 -12 40
-22 0 -8 6 -23 14 -31 7 -9 27 -47 44 -86 24 -56 37 -73 65 -88 26 -13 38 -27
43 -50 10 -49 43 -107 59 -107 18 0 18 -8 0 -40 -8 -14 -14 -35 -15 -46 0 -18
8 -23 45 -28 29 -5 45 -12 45 -21 0 -8 9 -19 20 -25 11 -6 20 -17 20 -25 0
-22 59 -55 97 -55 28 0 34 -5 52 -45 26 -60 51 -61 51 -2 l0 44 56 -19 c51
-17 58 -18 74 -3 13 12 23 13 44 5 15 -5 38 -10 50 -10 13 0 31 -9 41 -20 10
-11 26 -18 35 -15 11 4 20 -5 29 -30 16 -46 79 -112 114 -120 43 -11 145 38
203 96 l48 49 82 0 c91 0 114 5 114 26 0 8 5 14 10 14 6 0 19 14 30 32 11 18
45 50 77 71 53 36 61 38 93 29 19 -6 70 -14 113 -17 98 -9 110 -1 105 69 -2
36 2 58 15 76 9 13 17 41 17 61 0 32 4 39 30 51 17 7 30 18 30 24 0 6 9 19 20
29 11 10 20 24 20 30 0 7 7 18 15 25 21 17 11 27 -35 34 -22 3 -59 9 -81 12
-23 3 -37 9 -32 13 6 3 18 23 27 43 12 25 26 39 45 43 23 5 37 -4 109 -76 45
-46 85 -80 88 -76 11 10 -6 45 -52 107 l-44 60 53 0 c57 0 128 17 138 32 4 6
2 28 -2 50 -8 34 -6 43 13 68 13 16 36 32 51 35 16 4 31 13 33 20 3 7 -6 41
-20 75 -14 35 -26 73 -26 85 0 12 -7 42 -16 67 -14 42 -14 49 0 77 28 53 64
161 54 161 -5 0 -18 -5 -29 -10 -20 -11 -28 3 -9 15 17 10 11 25 -9 25 -11 0
-23 5 -26 10 -3 6 -21 10 -38 10 -53 0 -61 11 -54 70 4 29 8 55 11 57 3 3 29
-6 59 -20 63 -29 112 -41 127 -32 19 12 -100 205 -135 219 -9 3 -15 11 -14 18
6 45 -4 73 -35 104 -29 29 -41 34 -79 34 -44 0 -45 1 -108 85 -71 96 -95 108
-84 43 6 -36 5 -40 -10 -35 -9 4 -23 7 -31 7 -9 0 -13 4 -10 9 8 13 -32 164
-46 172 -7 4 -20 3 -30 -2 -23 -12 -24 0 -1 16 9 7 14 19 10 29 -10 25 -109
66 -161 66 -44 0 -45 1 -52 35 -3 19 -12 35 -18 35 -7 0 -22 11 -34 25 -27 31
-74 33 -121 4 -37 -23 -57 -17 -23 7 30 21 53 78 45 114 -3 17 -8 30 -12 29
-3 0 -48 -23 -99 -49z m-162 -341 c0 -10 -4 -19 -10 -19 -5 0 -10 12 -10 26 0
14 4 23 10 19 6 -3 10 -15 10 -26z m-36 -48 c7 -11 -25 -101 -36 -101 -4 0
-18 11 -32 25 -23 23 -23 25 -5 30 10 4 19 10 19 15 0 11 29 40 40 40 5 0 11
-4 14 -9z m286 -122 c0 -3 -11 -4 -25 -1 -28 5 -31 12 -13 30 10 10 15 9 25
-5 7 -9 13 -20 13 -24z m20 -39 c9 -17 8 -20 -9 -20 -14 0 -18 5 -14 20 3 11
7 20 9 20 2 0 8 -9 14 -20z m518 -68 c2 -7 -2 -10 -12 -6 -9 3 -16 11 -16 16
0 13 23 5 28 -10z m-355 -17 c-5 -13 -23 -22 -23 -11 0 15 14 35 21 31 4 -3 6
-12 2 -20z m-83 -105 c0 -5 -5 -10 -11 -10 -5 0 -7 5 -4 10 3 6 8 10 11 10 2
0 4 -4 4 -10z m-432 -122 c-20 -28 -23 -30 -26 -14 -3 11 4 26 14 33 31 23 36
14 12 -19z m1010 -10 c25 -13 27 -21 10 -35 -20 -16 -96 -25 -104 -12 -4 6
-20 8 -40 4 -62 -11 -35 28 51 73 15 8 25 7 40 -4 11 -8 30 -19 43 -26z m-958
8 c0 -15 -18 -31 -26 -23 -7 7 7 37 17 37 5 0 9 -6 9 -14z m-959 -19 c-13 -13
-26 -3 -16 12 3 6 11 8 17 5 6 -4 6 -10 -1 -17z m69 -217 c0 -4 -8 -10 -17
-14 -10 -3 -24 -9 -31 -12 -7 -4 -6 5 5 24 13 23 21 28 30 20 7 -6 13 -14 13
-18z m1290 0 c0 -20 -5 -25 -20 -22 -20 5 -23 9 -15 21 8 14 35 14 35 1z
m-717 -34 c11 -9 33 -12 62 -8 52 5 58 -6 19 -37 -35 -28 -56 -26 -94 5 -29
25 -34 26 -69 15 -61 -18 -70 -35 -43 -84 12 -22 20 -42 18 -44 -2 -3 -18 3
-35 11 -16 9 -39 16 -51 16 -30 0 -25 16 26 75 42 49 52 54 93 58 25 2 48 4
51 5 3 1 13 -5 23 -12z m677 -38 c0 -4 -7 -5 -15 -2 -8 4 -15 18 -15 33 l1 26
14 -25 c8 -14 14 -28 15 -32z m250 20 c15 -10 22 -10 32 0 16 16 48 15 48 -2
0 -8 -19 -29 -42 -48 -23 -18 -39 -27 -34 -20 4 7 -1 27 -13 47 -22 38 -21 41
9 23z m40 -122 c0 -11 -19 -15 -25 -6 -3 5 1 10 9 10 9 0 16 -2 16 -4z m-41
-27 c35 -29 20 -33 -19 -4 -19 14 -27 25 -19 25 8 -1 25 -10 38 -21z m-46 -23
c46 -33 49 -38 52 -86 4 -50 4 -50 -18 -35 -12 8 -34 15 -50 15 -26 0 -28 2
-16 16 12 14 8 20 -24 46 -39 32 -45 46 -25 66 18 18 29 15 81 -22z m392 -6
c-3 -5 -13 -10 -21 -10 -8 0 -14 5 -14 10 0 6 9 10 21 10 11 0 17 -4 14 -10z
m-485 -112 c0 -5 -4 -8 -10 -8 -5 0 -10 10 -10 23 0 18 2 19 10 7 5 -8 10 -18
10 -22z m-384 -15 c-10 -10 -19 5 -10 18 6 11 8 11 12 0 2 -7 1 -15 -2 -18z
m644 -193 c0 -5 -4 -10 -10 -10 -5 0 -10 5 -10 10 0 6 5 10 10 10 6 0 10 -4
10 -10z m-1421 -44 c7 -8 11 -26 9 -40 -3 -23 -4 -22 -20 14 -17 40 -11 53 11
26z m1161 -218 c0 -30 -25 -128 -32 -128 -5 0 -6 17 -2 38 4 20 7 52 7 70 -1
21 4 32 13 32 8 0 14 -5 14 -12z m-651 -90 c12 -15 11 -18 -3 -18 -10 0 -16 8
-16 22 0 12 1 19 3 17 1 -2 9 -12 16 -21z m235 -4 c9 -22 8 -24 -9 -24 -8 0
-15 9 -15 20 0 24 15 27 24 4z m-280 -9 c-6 -16 -24 -21 -24 -7 0 11 11 22 21
22 5 0 6 -7 3 -15z m261 -173 c-9 -9 -35 8 -35 24 0 16 2 16 20 -1 11 -10 18
-20 15 -23z"/>
<path d="M5165 2721 c-6 -6 -45 -28 -89 -50 l-79 -41 -31 19 c-32 20 -166 61
-199 61 -18 0 -18 -1 -3 -25 20 -30 20 -39 1 -31 -8 3 -15 1 -15 -4 0 -5 -10
-12 -22 -15 -35 -11 -68 -46 -68 -72 0 -23 -1 -23 -31 -8 -18 10 -41 14 -58
10 -19 -4 -32 -1 -41 9 -7 10 -21 14 -35 10 -17 -4 -24 0 -29 18 -5 19 -8 20
-16 8 -5 -8 -10 -28 -10 -44 0 -26 -3 -28 -30 -24 -16 3 -30 1 -30 -4 0 -13
-35 -9 -56 7 -10 8 -31 15 -46 15 -21 0 -27 -5 -30 -26 -2 -17 -20 -41 -50
-67 l-47 -39 -31 22 -31 22 -23 -21 c-12 -11 -29 -21 -37 -21 -22 0 -59 -43
-59 -68 0 -15 -13 -28 -47 -45 -27 -13 -70 -36 -98 -50 -27 -14 -58 -28 -67
-31 -20 -6 -46 -89 -50 -158 -1 -42 -5 -49 -33 -62 -18 -9 -42 -12 -56 -9 -21
6 -23 5 -10 -10 7 -9 21 -17 30 -17 13 0 14 -2 2 -9 -10 -6 -25 -4 -42 5 -16
8 -37 14 -49 14 -17 0 -20 -6 -20 -43 0 -24 7 -65 14 -92 18 -58 8 -85 -57
-152 -32 -34 -38 -46 -29 -55 15 -15 16 -54 2 -63 -15 -9 -12 -46 5 -65 14
-16 14 -20 -2 -48 -22 -39 -8 -62 29 -45 19 8 26 5 46 -18 24 -30 23 -38 -10
-76 -16 -17 -18 -25 -9 -42 14 -26 61 -51 96 -51 25 0 25 0 10 -31 -16 -29
-15 -31 4 -36 31 -8 26 -25 -6 -23 -16 1 -32 2 -36 1 -15 -2 28 -63 72 -102
30 -27 41 -44 37 -55 -10 -25 22 -53 66 -60 21 -4 38 -11 38 -16 0 -6 16 -43
35 -84 19 -40 35 -78 35 -84 0 -18 28 -41 57 -49 20 -5 29 -16 34 -39 10 -48
38 -101 59 -112 20 -11 20 -11 0 -51 -12 -22 -18 -44 -16 -48 3 -5 26 -12 51
-15 36 -6 45 -11 45 -27 0 -10 7 -19 15 -19 8 0 15 -6 15 -14 0 -27 59 -66
100 -66 36 0 39 -2 56 -45 21 -56 48 -58 51 -5 1 19 2 38 2 42 1 3 24 -3 52
-13 47 -18 53 -18 75 -4 17 11 29 12 49 5 15 -6 36 -10 48 -10 13 0 31 -9 40
-21 10 -11 25 -18 32 -15 10 3 21 -9 33 -37 21 -47 79 -103 117 -113 39 -10
132 35 196 93 l57 53 73 0 c87 0 119 7 119 26 0 8 5 14 10 14 6 0 17 15 26 33
10 20 34 43 63 60 27 15 54 33 61 42 9 11 16 12 26 4 7 -6 58 -16 113 -22 124
-14 136 -7 128 66 -5 37 -2 55 13 80 11 18 20 46 20 64 0 25 6 34 29 44 17 7
32 20 35 29 8 24 40 74 56 86 12 10 7 14 -25 23 -22 5 -62 13 -88 16 -44 6
-47 8 -35 23 8 9 19 29 25 43 7 16 23 29 39 33 24 6 36 -1 103 -68 110 -109
130 -100 45 20 l-43 61 74 6 c40 3 83 11 95 17 20 11 22 17 16 57 -5 36 -2 50
16 73 11 16 34 32 49 35 38 9 41 24 13 91 -13 32 -26 74 -29 93 -2 19 -10 49
-16 68 -13 40 -12 41 35 152 37 87 37 87 -19 65 -20 -7 -20 -7 -1 14 18 21 18
22 0 28 -11 3 -27 10 -36 15 -10 5 -27 9 -39 9 -11 0 -29 5 -39 10 -17 9 -19
18 -13 58 3 26 9 50 13 55 3 4 31 -4 62 -17 30 -14 72 -28 92 -31 30 -6 36 -4
36 10 0 24 -66 131 -111 180 -26 29 -38 52 -42 85 -8 63 -50 100 -115 101
l-47 1 -60 80 c-75 101 -91 109 -81 42 5 -38 4 -46 -6 -36 -7 7 -20 12 -31 12
-10 0 -16 4 -12 9 3 5 1 12 -5 16 -6 4 -8 10 -5 14 6 11 -23 121 -35 137 -6 6
-22 9 -38 7 -25 -3 -26 -3 -4 6 12 6 22 14 22 18 -2 35 -100 83 -171 83 -42 0
-49 3 -50 20 -1 11 -2 24 -3 28 0 5 -17 23 -37 40 -45 39 -83 41 -133 7 -25
-17 -36 -20 -36 -11 0 8 6 16 14 19 8 3 22 21 31 40 26 55 11 128 -20 98z
m-235 -387 c0 -8 -4 -14 -10 -14 -5 0 -10 9 -10 21 0 11 5 17 10 14 6 -3 10
-13 10 -21z m-36 -43 c7 -10 -30 -101 -40 -101 -4 0 -16 10 -28 23 l-21 22 33
33 c34 33 47 38 56 23z m279 -112 c4 -15 2 -19 -10 -15 -8 3 -19 6 -24 6 -14
0 -11 28 4 33 17 6 24 1 30 -24z m21 -67 c-21 -5 -26 2 -18 22 6 15 7 15 20
-1 11 -15 10 -19 -2 -21z m163 -66 c-10 -26 -25 -18 -19 10 3 17 8 22 15 15 5
-5 7 -17 4 -25z m361 16 c2 -7 -2 -10 -12 -6 -9 3 -16 11 -16 16 0 13 23 5 28
-10z m-438 -122 c0 -5 -5 -10 -11 -10 -5 0 -7 5 -4 10 3 6 8 10 11 10 2 0 4
-4 4 -10z m-435 -120 c-19 -36 -25 -38 -25 -6 0 15 7 26 18 29 9 3 18 5 20 6
1 0 -4 -12 -13 -29z m980 6 c20 -14 41 -27 48 -29 9 -3 8 -9 -3 -20 -18 -18
-97 -29 -106 -15 -4 5 -21 7 -39 4 -53 -10 -50 10 7 49 29 19 54 35 55 35 1 0
18 -11 38 -24z m-939 -33 c-11 -11 -17 4 -9 23 7 18 8 18 11 1 2 -10 1 -21 -2
-24z m-944 5 c-6 -6 -16 -7 -22 -3 -9 6 -9 9 1 16 17 10 34 0 21 -13z m68
-218 c0 -4 -8 -10 -17 -14 -10 -3 -24 -9 -31 -12 -10 -5 -9 2 3 26 13 26 19
29 31 19 8 -6 14 -15 14 -19z m1295 -21 c-6 -8 -45 0 -45 10 0 4 6 13 12 19
10 10 15 9 25 -4 7 -9 10 -20 8 -25z m-727 -11 c7 -7 31 -12 55 -13 52 0 57
-14 13 -40 l-34 -19 -41 28 c-46 32 -73 30 -116 -7 l-26 -22 26 -39 c14 -21
24 -40 21 -43 -2 -2 -18 3 -35 11 -16 9 -39 16 -51 16 -27 0 -26 27 3 54 12
11 31 33 43 48 16 20 32 28 65 31 24 2 49 4 55 5 5 1 15 -3 22 -10z m682 -40
c0 -4 -7 -5 -15 -2 -8 4 -15 18 -15 33 l1 26 14 -25 c8 -14 14 -28 15 -32z
m285 22 c20 11 28 11 38 1 9 -10 5 -18 -23 -41 -19 -16 -39 -30 -44 -30 -5 0
-6 3 -3 6 4 4 -2 19 -13 34 -25 35 -25 43 -1 28 16 -10 25 -9 46 2z m5 -124
c0 -11 -19 -15 -25 -6 -3 5 1 10 9 10 9 0 16 -2 16 -4z m-49 -25 c13 -11 22
-22 19 -24 -3 -3 -18 6 -35 19 -16 13 -25 24 -19 24 7 0 22 -9 35 -19z m-38
-26 c36 -27 47 -42 47 -63 0 -15 3 -38 7 -50 6 -24 6 -24 -25 -8 -17 9 -40 16
-50 16 -15 0 -18 5 -15 24 4 16 -1 28 -14 35 -48 28 -55 38 -41 60 18 29 35
26 91 -14z m387 -5 c0 -5 -7 -10 -15 -10 -8 0 -15 5 -15 10 0 6 7 10 15 10 8
0 15 -4 15 -10z m-5 -60 c3 -5 1 -10 -4 -10 -6 0 -11 5 -11 10 0 6 2 10 4 10
3 0 8 -4 11 -10z m-475 -51 c0 -5 -4 -9 -10 -9 -5 0 -10 7 -10 16 0 8 5 12 10
9 6 -3 10 -10 10 -16z m-384 -16 c-10 -10 -19 5 -10 18 6 11 8 11 12 0 2 -7 1
-15 -2 -18z m634 -193 c0 -5 -5 -10 -11 -10 -5 0 -7 5 -4 10 3 6 8 10 11 10 2
0 4 -4 4 -10z m-1400 -82 c0 -37 -3 -35 -23 15 -16 36 -15 37 3 27 13 -7 20
-21 20 -42z m1144 -183 c3 -8 1 -27 -4 -41 -6 -14 -10 -36 -10 -49 0 -13 -4
-26 -9 -29 -4 -3 -8 26 -7 64 1 45 5 70 12 70 7 0 14 -7 18 -15z m-650 -103
c-21 -5 -28 4 -20 24 6 16 8 15 21 -2 12 -16 12 -19 -1 -22z m236 8 c0 -11 -7
-20 -15 -20 -8 0 -15 9 -15 20 0 11 7 20 15 20 8 0 15 -9 15 -20z m-284 -17
c-10 -10 -19 5 -10 18 6 11 8 11 12 0 2 -7 1 -15 -2 -18z m262 -159 c-10 -10
-28 6 -28 24 0 15 1 15 17 -1 9 -9 14 -19 11 -23z"/>
<path d="M8275 2691 c-38 -21 -79 -43 -91 -51 -18 -11 -25 -10 -50 8 -32 24
-199 71 -210 59 -4 -4 0 -15 9 -25 19 -20 13 -34 -9 -25 -8 3 -14 1 -14 -4 0
-5 -16 -17 -35 -26 -20 -9 -41 -29 -47 -44 -7 -16 -13 -29 -13 -31 -1 -1 -18
4 -37 12 -26 11 -38 12 -46 4 -9 -9 -16 -7 -30 5 -10 9 -27 14 -38 11 -16 -4
-23 0 -27 18 -8 29 -24 14 -29 -27 -2 -25 -7 -30 -30 -30 -16 1 -28 -3 -28 -7
0 -14 -29 -9 -71 12 -45 24 -54 21 -62 -17 -3 -17 -24 -44 -51 -66 l-46 -38
-31 22 -30 21 -23 -21 c-12 -11 -30 -21 -39 -21 -21 0 -57 -35 -57 -54 0 -24
-11 -46 -24 -46 -6 0 -46 -20 -88 -45 -43 -25 -84 -45 -93 -45 -24 0 -55 -77
-55 -136 0 -68 -22 -96 -73 -96 -31 0 -36 -2 -26 -14 6 -8 19 -14 28 -14 13 0
14 -2 2 -9 -10 -6 -25 -4 -42 5 -16 8 -37 14 -49 14 -18 0 -20 -6 -20 -57 1
-32 7 -71 14 -88 11 -26 11 -35 -6 -70 -11 -22 -36 -55 -55 -73 -25 -24 -33
-37 -27 -50 9 -20 8 -47 -1 -85 -5 -20 -3 -33 10 -47 17 -19 17 -21 2 -38 -23
-25 -22 -62 1 -62 9 0 23 4 31 9 10 7 20 0 36 -22 l21 -32 -24 -32 c-13 -18
-22 -40 -18 -48 7 -21 66 -55 94 -55 25 0 26 -3 11 -32 -10 -18 -8 -24 12 -40
l24 -20 -32 6 c-18 3 -35 1 -38 -4 -8 -13 65 -108 87 -116 18 -5 22 -16 19
-42 -3 -22 28 -50 64 -56 29 -6 37 -15 74 -91 22 -47 41 -91 41 -99 0 -18 38
-46 62 -46 11 0 20 -10 24 -27 10 -49 37 -104 58 -118 19 -14 19 -15 2 -54
-10 -21 -16 -44 -12 -49 3 -5 24 -12 46 -16 27 -4 40 -11 40 -22 0 -9 9 -18
19 -21 11 -3 21 -14 23 -25 4 -25 62 -58 103 -58 26 0 32 -6 48 -45 29 -69 52
-60 47 18 -2 32 -3 31 43 12 43 -18 94 -20 99 -3 3 9 12 9 38 0 18 -7 41 -12
51 -12 11 0 28 -9 39 -20 11 -11 25 -17 33 -14 8 3 19 -10 30 -34 20 -47 67
-95 107 -112 26 -11 37 -9 97 16 46 20 82 44 112 76 l45 48 77 0 c94 0 117 8
149 55 32 48 44 59 106 100 29 19 55 30 60 25 13 -12 180 -33 208 -26 29 7 36
31 26 84 -5 30 -3 44 8 56 8 8 20 36 27 63 8 32 19 51 33 58 12 5 22 15 22 22
0 7 4 13 9 13 5 0 16 16 25 35 9 19 24 38 33 43 13 8 10 11 -18 20 -19 6 -58
14 -87 17 -49 6 -52 8 -38 24 14 15 16 20 16 40 0 18 31 41 55 41 16 0 38 -17
70 -54 108 -125 159 -122 65 4 -22 29 -38 55 -36 57 1 2 35 5 75 8 100 7 115
16 107 68 -9 54 16 103 56 111 41 8 44 29 14 104 -14 37 -26 80 -26 95 0 15
-6 43 -14 61 -12 30 -12 38 1 63 16 30 63 156 63 168 0 4 -12 0 -26 -10 -27
-18 -46 -13 -26 7 18 18 15 28 -7 28 -11 0 -22 4 -26 9 -3 6 -26 13 -51 17
l-46 7 7 51 c3 28 10 54 14 59 4 4 32 -4 62 -17 68 -31 129 -43 129 -26 0 24
-61 127 -105 177 -25 28 -45 61 -45 72 0 70 -55 121 -129 121 -30 0 -43 5 -51
21 -18 33 -113 149 -123 149 -5 0 -7 -18 -5 -41 3 -36 2 -40 -17 -35 -11 3
-24 6 -30 6 -5 0 -11 21 -13 46 -2 25 -11 67 -20 92 -17 43 -21 47 -48 44
l-29 -3 23 16 c22 16 23 18 6 36 -28 31 -102 59 -154 59 -45 0 -48 2 -53 30
-4 16 -21 43 -39 60 -40 36 -89 39 -133 10 -37 -25 -58 -26 -29 -2 44 37 71
140 39 148 -5 1 -41 -15 -80 -35z m-182 -357 c-7 -20 -10 -18 -15 11 -4 20 -2
23 8 14 7 -6 10 -17 7 -25z m-29 -43 c5 -7 -24 -76 -42 -101 -2 -3 -12 5 -22
18 -10 12 -24 22 -32 22 -7 1 -1 8 15 16 15 8 27 21 27 28 0 22 43 35 54 17z
m271 -102 c9 -26 5 -29 -24 -18 -19 8 -21 12 -11 24 17 21 27 19 35 -6z m29
-77 c-21 -5 -28 4 -20 24 6 16 8 15 21 -2 12 -16 12 -19 -1 -22z m161 -72
c-12 -19 -22 -10 -17 16 4 22 6 24 14 10 5 -9 6 -21 3 -26z m360 29 c11 -17 0
-20 -21 -4 -17 13 -17 14 -2 15 9 0 20 -5 23 -11z m-435 -123 c0 -3 -4 -8 -10
-11 -5 -3 -10 -1 -10 4 0 6 5 11 10 11 6 0 10 -2 10 -4z m-438 -126 c-9 -16
-20 -30 -24 -30 -16 0 -8 39 10 49 28 17 32 13 14 -19z m967 16 c9 -8 28 -21
43 -28 18 -10 24 -19 18 -28 -9 -15 -98 -31 -106 -18 -3 5 -20 7 -37 6 -49 -4
-46 14 7 50 55 37 54 37 75 18z m-919 -26 c0 -11 -7 -20 -15 -20 -18 0 -19 12
-3 28 16 16 18 15 18 -8z m-950 -5 c0 -8 -7 -15 -15 -15 -16 0 -20 12 -8 23
11 12 23 8 23 -8z m58 -207 c17 -17 15 -28 -7 -28 -11 0 -21 -6 -24 -12 -2 -7
-7 -10 -11 -7 -6 6 15 59 25 59 3 0 10 -5 17 -12z m1297 -38 c-8 -13 -35 -1
-35 15 0 7 6 15 13 18 14 5 31 -19 22 -33z m-711 -17 c11 -6 37 -8 58 -6 45 7
49 -7 12 -36 -34 -27 -40 -26 -86 6 -35 24 -42 25 -77 14 -62 -18 -68 -33 -36
-87 24 -41 25 -46 9 -39 -23 9 -74 27 -91 31 -21 5 -15 16 40 74 50 53 54 55
102 55 28 0 59 -6 69 -12z m665 -25 c1 -5 -3 -8 -9 -8 -5 0 -10 12 -9 28 0 24
1 25 9 7 5 -11 9 -23 9 -27z m251 10 c16 -10 24 -10 40 0 49 30 55 -3 8 -43
l-32 -27 -8 23 c-5 13 -16 32 -25 41 -19 21 -11 23 17 6z m40 -128 c0 -5 -4
-10 -10 -10 -5 0 -10 5 -10 10 0 6 5 10 10 10 6 0 10 -4 10 -10z m-40 -20 c14
-10 22 -21 19 -24 -2 -3 -18 6 -34 19 -35 29 -22 33 15 5z m-41 -24 c32 -24
44 -41 46 -62 1 -17 6 -40 10 -53 7 -22 6 -22 -24 -7 -16 9 -42 16 -56 16 -23
0 -24 2 -13 21 14 21 11 25 -46 62 -16 11 -17 17 -7 35 16 30 38 27 90 -12z
m391 -6 c0 -5 -7 -10 -15 -10 -8 0 -15 5 -15 10 0 6 7 10 15 10 8 0 15 -4 15
-10z m-486 -111 c-10 -16 -24 -9 -24 12 0 18 2 19 15 9 8 -7 12 -16 9 -21z
m-374 -4 c0 -8 -7 -15 -15 -15 -16 0 -20 12 -8 23 11 12 23 8 23 -8z m630
-205 c0 -5 -4 -10 -10 -10 -5 0 -10 5 -10 10 0 6 5 10 10 10 6 0 10 -4 10 -10z
m-1400 -80 c0 -39 -6 -38 -25 6 -19 46 -19 47 5 34 13 -7 20 -21 20 -40z
m1140 -190 c0 -37 -22 -120 -30 -115 -5 3 -4 22 2 42 5 20 7 49 4 65 -4 21 -2
28 9 28 8 0 15 -9 15 -20z m-642 -80 c11 -18 10 -20 -8 -20 -13 0 -20 7 -20
20 0 11 3 20 8 20 4 0 13 -9 20 -20z m232 -10 c0 -11 -7 -20 -15 -20 -8 0 -15
9 -15 20 0 11 7 20 15 20 8 0 15 -9 15 -20z m-280 1 c0 -6 -4 -13 -10 -16 -5
-3 -10 1 -10 9 0 9 5 16 10 16 6 0 10 -4 10 -9z m248 -161 c10 -17 10 -20 -3
-20 -8 0 -15 2 -15 4 0 2 -3 11 -6 20 -9 23 9 20 24 -4z"/>
<path d="M11422 2680 l-92 -49 -43 24 c-43 25 -183 62 -194 51 -3 -3 2 -15 12
-26 16 -18 14 -25 -8 -21 -4 1 -15 -5 -23 -14 -9 -8 -22 -15 -29 -15 -18 0
-55 -48 -55 -72 0 -18 -1 -18 -39 1 -28 15 -41 17 -49 9 -9 -9 -16 -7 -29 4
-12 11 -28 14 -45 11 -24 -4 -28 -2 -28 16 0 11 -4 21 -10 21 -5 0 -10 -12
-10 -27 0 -37 -13 -55 -36 -52 -11 1 -27 -1 -37 -6 -12 -5 -32 -1 -57 14 -43
24 -70 19 -70 -13 0 -29 -9 -41 -55 -75 l-40 -30 -32 20 c-32 20 -32 20 -52 0
-12 -12 -29 -21 -39 -21 -23 0 -48 -30 -57 -68 -4 -21 -14 -32 -32 -37 -14 -3
-55 -24 -91 -46 -36 -21 -74 -39 -83 -39 -23 0 -49 -69 -52 -141 -4 -70 -22
-92 -79 -92 -38 0 -40 -1 -23 -13 10 -8 24 -14 29 -14 6 0 5 -4 -3 -9 -9 -6
-26 -4 -47 6 -50 24 -65 13 -58 -44 3 -26 10 -67 16 -89 12 -49 -1 -81 -56
-133 -37 -36 -44 -59 -24 -79 9 -9 7 -20 -7 -46 -19 -35 -19 -36 3 -65 17 -24
19 -30 7 -35 -17 -6 -21 -66 -4 -66 6 0 18 4 28 10 14 7 22 3 39 -20 27 -36
27 -42 2 -65 -11 -10 -20 -26 -20 -35 0 -26 43 -60 84 -67 36 -6 45 -16 26
-28 -15 -9 -12 -45 4 -45 8 0 18 -5 22 -11 5 -9 -3 -10 -30 -5 -26 5 -36 3
-36 -6 1 -21 70 -110 91 -115 12 -4 19 -14 19 -30 0 -41 17 -61 58 -68 37 -6
40 -10 78 -92 21 -47 44 -96 49 -107 6 -12 25 -25 42 -30 25 -8 33 -16 38 -45
8 -44 46 -111 63 -111 16 0 15 -2 -4 -44 -22 -46 -14 -62 35 -70 26 -4 41 -11
41 -21 0 -8 9 -19 20 -25 11 -6 20 -17 20 -25 0 -22 59 -55 97 -55 28 0 34 -5
52 -45 27 -60 51 -61 51 -1 l0 44 38 -14 c45 -16 84 -18 98 -4 14 14 102 -8
130 -32 11 -10 27 -16 35 -14 9 3 23 -13 39 -47 26 -52 87 -106 122 -107 36 0
145 60 188 104 l44 46 76 0 c88 0 120 7 120 26 0 8 5 14 10 14 6 0 19 14 30
32 25 42 140 120 157 107 6 -6 54 -15 107 -21 119 -13 129 -8 124 66 -2 36 2
58 15 76 9 13 17 41 17 61 0 32 4 39 30 51 17 7 30 18 30 24 0 6 9 19 20 29
11 10 20 24 20 30 0 7 7 18 15 25 24 20 7 28 -77 41 -68 10 -75 13 -63 26 8 8
15 20 15 27 0 20 39 56 62 56 13 0 43 -25 80 -65 85 -92 127 -112 92 -43 -9
18 -32 52 -51 76 l-34 42 28 1 c15 1 34 1 41 0 28 -4 121 21 125 33 3 8 2 31
-3 52 -7 31 -5 42 13 65 12 15 35 31 50 34 16 4 31 13 33 20 3 7 -6 42 -20 77
-14 36 -26 74 -26 85 0 11 -7 41 -14 68 -13 43 -13 51 1 78 8 17 23 53 33 81
10 28 21 59 25 70 8 17 6 17 -24 2 -27 -15 -46 -7 -21 9 17 10 11 25 -9 25
-11 0 -22 4 -26 9 -3 6 -26 13 -51 17 l-47 7 6 54 c3 30 8 58 11 61 3 2 32 -7
63 -21 69 -30 119 -42 127 -29 12 19 -98 193 -136 213 -13 7 -17 16 -13 30 9
28 -30 104 -61 117 -14 7 -42 12 -63 12 -31 0 -42 5 -57 27 -34 52 -108 138
-118 138 -7 0 -10 -16 -8 -39 3 -32 1 -38 -13 -32 -9 3 -23 6 -31 6 -9 0 -13
4 -10 8 5 9 -7 76 -26 135 -11 37 -16 41 -53 37 -18 -1 -18 0 3 15 22 16 23
18 6 36 -28 31 -102 59 -155 59 -47 0 -48 1 -55 35 -3 19 -11 35 -16 35 -6 0
-19 11 -30 25 -25 32 -79 34 -127 4 -37 -23 -57 -17 -23 7 30 21 54 81 47 116
-4 15 -10 28 -13 27 -4 0 -49 -23 -100 -49z m-162 -341 c0 -10 -4 -19 -9 -19
-5 0 -8 11 -8 25 0 13 3 22 8 19 5 -3 9 -14 9 -25z m-36 -48 c7 -11 -25 -101
-36 -101 -4 0 -18 11 -32 25 -23 23 -23 25 -5 30 10 4 19 10 19 15 0 11 29 40
40 40 5 0 11 -4 14 -9z m286 -122 c0 -3 -11 -4 -25 -1 -28 5 -31 12 -13 30 10
10 15 9 25 -5 7 -9 13 -20 13 -24z m30 -50 c0 -5 -9 -9 -19 -9 -14 0 -18 5
-14 20 4 16 8 18 19 9 8 -6 14 -15 14 -20z m153 -76 c-3 -7 -10 -13 -15 -13
-6 0 -7 7 -4 16 3 9 6 21 6 27 0 7 4 7 9 -2 5 -8 7 -20 4 -28z m357 27 c0 -5
-7 -10 -15 -10 -8 0 -15 5 -15 10 0 6 7 10 15 10 8 0 15 -4 15 -10z m-430
-124 c0 -3 -4 -8 -10 -11 -5 -3 -10 -1 -10 4 0 6 5 11 10 11 6 0 10 -2 10 -4z
m-1250 -56 c0 -5 -5 -10 -11 -10 -5 0 -7 5 -4 10 3 6 8 10 11 10 2 0 4 -4 4
-10z m808 -72 c-20 -28 -23 -30 -26 -14 -3 11 4 26 14 33 31 23 36 14 12 -19z
m1010 -10 c25 -13 27 -21 10 -35 -19 -15 -97 -23 -104 -11 -4 5 -21 7 -40 3
-61 -11 -35 30 44 71 23 12 29 11 47 -1 11 -9 30 -20 43 -27z m-958 8 c0 -15
-18 -31 -26 -23 -7 7 7 37 17 37 5 0 9 -6 9 -14z m-959 -19 c-13 -13 -26 -3
-16 12 3 6 11 8 17 5 6 -4 6 -10 -1 -17z m69 -211 c0 -6 -11 -16 -25 -23 -29
-13 -29 -12 -14 21 11 24 39 26 39 2z m1296 -25 c-5 -8 -13 -8 -27 0 -17 8
-18 13 -8 25 11 13 14 13 27 0 8 -8 11 -19 8 -25z m-724 -14 c3 -5 29 -9 57
-8 58 2 64 -9 22 -38 -38 -27 -53 -26 -89 4 -36 30 -57 31 -99 5 -39 -23 -40
-31 -12 -77 26 -41 21 -48 -17 -28 -16 8 -39 15 -51 15 -35 0 -28 20 30 80 49
52 55 55 102 56 28 1 53 -3 57 -9z m671 -17 c3 -12 0 -20 -8 -20 -7 0 -12 11
-12 25 0 28 12 25 20 -5z m257 -2 c15 -10 22 -10 32 0 16 16 48 15 48 -2 0 -8
-17 -28 -37 -44 l-38 -30 -1 25 c-1 13 -10 33 -20 44 -20 22 -13 25 16 7z m40
-122 c0 -11 -19 -15 -25 -6 -3 5 1 10 9 10 9 0 16 -2 16 -4z m-41 -27 c35 -29
22 -31 -19 -3 -19 13 -28 24 -20 24 8 -1 26 -10 39 -21z m-43 -24 c39 -28 48
-40 46 -59 -2 -14 2 -35 8 -47 11 -20 11 -21 -11 -14 -13 4 -39 9 -57 12 -25
4 -30 8 -22 18 14 16 3 43 -20 50 -31 10 -43 31 -30 54 15 29 29 26 86 -14z
m389 -5 c-3 -5 -13 -10 -21 -10 -8 0 -14 5 -14 10 0 6 9 10 21 10 11 0 17 -4
14 -10z m-485 -112 c0 -5 -4 -8 -10 -8 -5 0 -10 10 -10 23 0 18 2 19 10 7 5
-8 10 -18 10 -22z m-379 -11 c-13 -13 -26 -3 -16 12 3 6 11 8 17 5 6 -4 6 -10
-1 -17z m639 -197 c0 -5 -4 -10 -10 -10 -5 0 -10 5 -10 10 0 6 5 10 10 10 6 0
10 -4 10 -10z m-1406 -82 c3 -16 2 -28 -3 -28 -5 0 -12 11 -15 24 -3 13 -9 32
-12 43 -6 16 -5 16 8 3 9 -8 18 -27 22 -42z m1146 -180 c0 -30 -25 -128 -32
-128 -5 0 -5 17 -1 38 4 20 7 52 6 70 -1 22 3 32 13 32 8 0 14 -5 14 -12z
m-645 -88 c18 -19 17 -20 -3 -20 -15 0 -22 6 -22 20 0 11 2 20 3 20 2 0 12 -9
22 -20z m235 -22 c0 -4 -7 -8 -15 -8 -10 0 -15 10 -15 28 1 26 1 26 15 8 8
-11 15 -23 15 -28z m-280 13 c0 -12 -20 -25 -27 -18 -7 7 6 27 18 27 5 0 9 -4
9 -9z m250 -179 c-7 -3 -16 2 -21 9 -16 25 -9 32 12 13 13 -12 16 -20 9 -22z"/>
</g>
</svg>
