<?xml version="1.0" encoding="utf-8"?>
<!-- Generator: Adobe Illustrator 22.1.0, SVG Export Plug-In . SVG Version: 6.00 Build 0)  -->
<svg version="1.1" id="レイヤー_1" xmlns="http://www.w3.org/2000/svg" xmlns:xlink="http://www.w3.org/1999/xlink" x="0px"
	 y="0px" viewBox="0 0 1800 1247" style="enable-background:new 0 0 1800 1247;" xml:space="preserve">
<style type="text/css">
	.st0{fill:url(#SVGID_1_);}
	.st1{fill:none;}
	.st2{fill:#FFEF69;}
	.st3{fill:url(#SVGID_2_);}
	.st4{fill:#FF1F03;}
</style>
<linearGradient id="SVGID_1_" gradientUnits="userSpaceOnUse" x1="900" y1="1247" x2="900" y2="-9.094947e-13">
	<stop  offset="0" style="stop-color:#0071BC"/>
	<stop  offset="0.1062" style="stop-color:#026AB5"/>
	<stop  offset="0.2637" style="stop-color:#0856A2"/>
	<stop  offset="0.4523" style="stop-color:#113583"/>
	<stop  offset="0.6103" style="stop-color:#1B1464"/>
	<stop  offset="0.8188" style="stop-color:#191362"/>
	<stop  offset="0.8938" style="stop-color:#120E5C"/>
	<stop  offset="0.9472" style="stop-color:#070550"/>
	<stop  offset="0.9667" style="stop-color:#00004A"/>
</linearGradient>
<rect class="st0" width="1800" height="1247"/>
<circle class="st1" cx="1374.5" cy="279.5" r="118.5"/>
<g id="XMLID_1_">
	<g>
		<circle class="st2" cx="381.5" cy="290.5" r="7.5"/>
	</g>
	<g>
	</g>
</g>
<circle class="st2" cx="354.5" cy="324.5" r="7.5"/>
<circle class="st2" cx="412.5" cy="388.5" r="7.5"/>
<circle class="st2" cx="361.5" cy="443.5" r="7.5"/>
<circle class="st2" cx="614.5" cy="491.5" r="7.5"/>
<circle class="st2" cx="544.5" cy="476.5" r="7.5"/>
<linearGradient id="SVGID_2_" gradientUnits="userSpaceOnUse" x1="1164.3346" y1="203.095" x2="1459" y2="203.095">
	<stop  offset="0" style="stop-color:#FBB03B"/>
	<stop  offset="0.4675" style="stop-color:#FCB536"/>
	<stop  offset="0.9667" style="stop-color:#FFC229"/>
</linearGradient>
<path class="st3" d="M1350.9,55.2c31.7,24.6,52.1,63.1,52.1,106.3c0,74.3-60.2,134.5-134.5,134.5c-42,0-79.5-19.3-104.2-49.4
	C1184,307.2,1240.9,351,1308,351c83.4,0,151-67.6,151-151C1459,131.5,1413.4,73.7,1350.9,55.2z"/>
<g>
	<path class="st2" d="M447.1,307.2c-0.8-1.4-6.6,0.3-12.8,3.9c-0.2,0.1-0.4,0.2-0.5,0.3c2.5-4.8,3.4-9,2-9.8
		c-1.5-0.9-5.4,2.9-8.6,8.5c-0.4,0.7-0.8,1.5-1.2,2.2c-3.4,0.2-6.2,1.7-7.1,4.2c-1.6,4.1,2.3,9.5,8.8,12c6.4,2.5,13,1.2,14.5-3
		c1.2-3-0.7-6.8-4.3-9.5C443.8,312.5,447.9,308.6,447.1,307.2z"/>
	<circle class="st4" cx="436.5" cy="325.5" r="2.5"/>
	<circle class="st4" cx="422.5" cy="317.5" r="2.5"/>
</g>
<circle cx="433" cy="320" r="1"/>
<circle cx="428" cy="317" r="1"/>
</svg>
